<svg width="472" height="92" viewBox="0 0 472 92" fill="none" xmlns="http://www.w3.org/2000/svg">
<path d="M50.472 31.872V71.808C50.472 74.24 50.152 76.64 49.512 79.008C48.936 81.376 47.88 83.52 46.344 85.44C44.872 87.36 42.888 88.896 40.392 90.048C37.896 91.264 34.76 91.872 30.984 91.872C27.976 91.872 25.416 91.488 23.304 90.72C21.192 89.952 19.464 88.928 18.12 87.648C16.776 86.368 15.784 84.896 15.144 83.232C14.568 81.632 14.28 79.968 14.28 78.24C14.28 76.832 14.472 75.36 14.856 73.824C15.304 72.352 15.976 71.008 16.872 69.792C17.768 68.512 18.952 67.488 20.424 66.72C21.96 65.888 23.816 65.472 25.992 65.472C26.568 65.472 27.304 65.568 28.2 65.76C29.16 65.888 30.088 66.272 30.984 66.912C31.944 67.552 32.744 68.544 33.384 69.888C34.024 71.168 34.344 72.96 34.344 75.264C33.448 74.368 32.584 73.792 31.752 73.536C30.92 73.344 30.184 73.248 29.544 73.248C27.048 73.248 25.32 73.856 24.36 75.072C23.4 76.288 22.92 77.632 22.92 79.104C22.92 80.064 23.08 81.024 23.4 81.984C23.72 82.944 24.2 83.776 24.84 84.48C25.544 85.248 26.344 85.856 27.24 86.304C28.2 86.816 29.32 87.072 30.6 87.072C32.712 87.072 34.44 86.272 35.784 84.672C37.192 83.136 37.896 80.64 37.896 77.184V53.376C36.424 56.064 34.472 58.112 32.04 59.52C29.608 60.864 26.728 61.536 23.4 61.536C20.136 61.536 17.096 60.864 14.28 59.52C11.464 58.176 9 56.224 6.888 53.664C4.776 51.104 3.112 47.968 1.896 44.256C0.744 40.544 0.168 36.352 0.168 31.68C0.168 27.2 0.744 23.04 1.896 19.2C3.112 15.296 4.872 11.936 7.176 9.12C9.48 6.304 12.328 4.09599 15.72 2.496C19.176 0.831995 23.176 -5.72205e-06 27.72 -5.72205e-06C30.216 -5.72205e-06 32.712 0.287994 35.208 0.863995C37.704 1.376 39.944 2.24 41.928 3.456C43.976 4.672 45.608 6.24 46.824 8.16C48.104 10.08 48.744 12.416 48.744 15.168C48.744 17.152 48.328 18.752 47.496 19.968C46.728 21.12 45.384 21.696 43.464 21.696C42.696 21.696 41.608 21.568 40.2 21.312C38.792 20.992 37.512 20.288 36.36 19.2C37.256 18.88 37.928 18.048 38.376 16.704C38.824 15.296 39.048 14.08 39.048 13.056C39.048 12.48 38.952 11.744 38.76 10.848C38.568 9.952 38.184 9.088 37.608 8.256C37.096 7.36 36.296 6.624 35.208 6.048C34.184 5.408 32.808 5.088 31.08 5.088C28.52 5.088 26.216 5.824 24.168 7.296C22.184 8.704 20.488 10.624 19.08 13.056C17.736 15.424 16.712 18.176 16.008 21.312C15.304 24.448 14.952 27.744 14.952 31.2C14.952 34.976 15.336 38.24 16.104 40.992C16.936 43.744 17.96 46.048 19.176 47.904C20.456 49.696 21.864 51.04 23.4 51.936C24.936 52.768 26.472 53.184 28.008 53.184C31.144 53.184 33.704 51.392 35.688 47.808C37.736 44.224 38.888 38.88 39.144 31.776L50.472 31.872ZM80.3063 64.512C82.2263 64.512 83.9223 64.256 85.3943 63.744C86.8663 63.232 88.1783 62.56 89.3303 61.728C90.4823 60.832 91.5383 59.808 92.4983 58.656C93.4583 57.44 94.3863 56.16 95.2823 54.816H98.5463C97.6503 57.056 96.5623 59.232 95.2823 61.344C94.0663 63.456 92.5303 65.344 90.6743 67.008C88.8823 68.672 86.7703 70.016 84.3383 71.04C81.9063 72.064 79.0583 72.576 75.7943 72.576C73.0423 72.576 70.5143 72.16 68.2103 71.328C65.9063 70.496 63.8903 69.216 62.1623 67.488C60.4983 65.696 59.1863 63.424 58.2263 60.672C57.3303 57.856 56.8823 54.496 56.8823 50.592C56.8823 47.84 57.1703 44.896 57.7463 41.76C58.3863 38.56 59.4743 35.616 61.0103 32.928C62.5463 30.24 64.6263 28 67.2503 26.208C69.8743 24.416 73.2023 23.52 77.2343 23.52C80.3063 23.52 82.6743 24 84.3383 24.96C86.0023 25.92 87.2183 27.04 87.9863 28.32C88.8183 29.6 89.2983 30.848 89.4263 32.064C89.6183 33.28 89.7143 34.144 89.7143 34.656C89.7143 37.536 89.1703 40.064 88.0823 42.24C87.0583 44.416 85.6503 46.272 83.8583 47.808C82.1303 49.28 80.1143 50.432 77.8103 51.264C75.5703 52.032 73.2663 52.48 70.8983 52.608C70.9623 56.896 71.6663 59.968 73.0103 61.824C74.4183 63.616 76.8503 64.512 80.3063 64.512ZM82.3223 34.752C82.3223 32.512 81.9383 30.944 81.1703 30.048C80.4023 29.088 79.5703 28.608 78.6743 28.608C77.5863 28.608 76.5943 29.152 75.6983 30.24C74.8023 31.264 74.0023 32.672 73.2983 34.464C72.6583 36.192 72.1143 38.24 71.6663 40.608C71.2823 42.976 71.0263 45.44 70.8983 48C72.4983 47.872 74.0023 47.456 75.4103 46.752C76.8183 45.984 78.0343 45.024 79.0583 43.872C80.0823 42.656 80.8823 41.28 81.4583 39.744C82.0343 38.208 82.3223 36.544 82.3223 34.752ZM119.742 43.008C119.742 39.168 119.294 36.448 118.398 34.848C117.566 33.184 116.35 32.352 114.75 32.352C113.79 32.352 112.958 32.608 112.254 33.12C111.614 33.632 111.07 34.304 110.622 35.136C110.174 35.968 109.822 36.928 109.566 38.016C109.31 39.04 109.15 40.096 109.086 41.184V72H95.262V24H109.086V28.992C110.558 26.752 112.222 25.312 114.078 24.672C115.934 23.968 117.694 23.616 119.358 23.616C121.15 23.616 122.846 23.904 124.446 24.48C126.11 25.056 127.55 26.048 128.766 27.456C130.046 28.8 131.038 30.624 131.742 32.928C132.446 35.168 132.798 37.952 132.798 41.28C132.798 42.112 132.766 43.168 132.702 44.448C132.702 45.664 132.67 46.912 132.606 48.192C132.542 49.472 132.478 50.72 132.414 51.936C132.414 53.152 132.414 54.176 132.414 55.008C132.414 57.76 132.702 59.84 133.278 61.248C133.854 62.592 135.134 63.264 137.118 63.264C139.294 63.264 140.798 62.464 141.63 60.864C142.526 59.264 143.23 57.248 143.742 54.816H147.774C147.262 58.656 146.494 61.76 145.47 64.128C144.446 66.432 143.294 68.224 142.014 69.504C140.734 70.72 139.358 71.552 137.886 72C136.414 72.384 134.974 72.576 133.566 72.576C128.638 72.576 125.054 70.944 122.814 67.68C120.638 64.416 119.55 60.064 119.55 54.624C119.55 54.048 119.55 53.248 119.55 52.224C119.614 51.136 119.646 50.016 119.646 48.864C119.646 47.712 119.646 46.624 119.646 45.6C119.71 44.512 119.742 43.648 119.742 43.008ZM165.619 64.512C167.539 64.512 169.235 64.256 170.707 63.744C172.179 63.232 173.491 62.56 174.643 61.728C175.795 60.832 176.851 59.808 177.811 58.656C178.771 57.44 179.699 56.16 180.595 54.816H183.859C182.963 57.056 181.875 59.232 180.595 61.344C179.379 63.456 177.843 65.344 175.987 67.008C174.195 68.672 172.083 70.016 169.651 71.04C167.219 72.064 164.371 72.576 161.107 72.576C158.355 72.576 155.827 72.16 153.523 71.328C151.219 70.496 149.203 69.216 147.475 67.488C145.811 65.696 144.499 63.424 143.539 60.672C142.643 57.856 142.195 54.496 142.195 50.592C142.195 47.84 142.483 44.896 143.059 41.76C143.699 38.56 144.787 35.616 146.323 32.928C147.859 30.24 149.939 28 152.563 26.208C155.187 24.416 158.515 23.52 162.547 23.52C165.619 23.52 167.987 24 169.651 24.96C171.315 25.92 172.531 27.04 173.299 28.32C174.131 29.6 174.611 30.848 174.739 32.064C174.931 33.28 175.027 34.144 175.027 34.656C175.027 37.536 174.483 40.064 173.395 42.24C172.371 44.416 170.963 46.272 169.171 47.808C167.443 49.28 165.427 50.432 163.123 51.264C160.883 52.032 158.579 52.48 156.211 52.608C156.275 56.896 156.979 59.968 158.323 61.824C159.731 63.616 162.163 64.512 165.619 64.512ZM167.635 34.752C167.635 32.512 167.251 30.944 166.483 30.048C165.715 29.088 164.883 28.608 163.987 28.608C162.899 28.608 161.907 29.152 161.011 30.24C160.115 31.264 159.315 32.672 158.611 34.464C157.971 36.192 157.427 38.24 156.979 40.608C156.595 42.976 156.339 45.44 156.211 48C157.811 47.872 159.315 47.456 160.723 46.752C162.131 45.984 163.347 45.024 164.371 43.872C165.395 42.656 166.195 41.28 166.771 39.744C167.347 38.208 167.635 36.544 167.635 34.752ZM194.399 24V29.952C195.807 28.288 197.375 26.816 199.103 25.536C200.831 24.192 202.719 23.52 204.767 23.52C205.983 23.52 207.071 23.776 208.031 24.288C209.055 24.8 209.919 25.472 210.623 26.304C211.391 27.136 211.967 28.064 212.351 29.088C212.799 30.048 213.023 31.04 213.023 32.064C213.023 33.472 212.575 34.784 211.679 36C210.847 37.152 209.439 37.728 207.455 37.728C205.983 37.728 204.959 37.408 204.383 36.768C203.807 36.128 203.359 35.456 203.039 34.752C202.719 33.984 202.367 33.28 201.983 32.64C201.663 32 201.055 31.68 200.159 31.68C199.199 31.68 198.239 32.064 197.279 32.832C196.383 33.536 195.423 34.432 194.399 35.52V72H180.575V24H194.399ZM276.284 21.024C277.884 27.168 279.292 32.192 280.508 36.096C281.724 39.936 282.748 43.168 283.58 45.792C284.476 48.416 285.148 50.72 285.596 52.704C286.108 54.688 286.364 56.896 286.364 59.328C287.452 58.624 288.508 57.888 289.532 57.12C290.556 56.288 291.42 55.52 292.124 54.816H296.156C294.428 57.44 292.604 59.616 290.684 61.344C288.764 63.008 286.908 64.48 285.116 65.76C283.964 68.256 282.204 70.016 279.836 71.04C277.468 72.064 275.004 72.576 272.444 72.576C269.564 72.576 267.1 72.192 265.052 71.424C263.004 70.592 261.308 69.504 259.964 68.16C258.684 66.752 257.724 65.152 257.084 63.36C256.444 61.568 256.124 59.68 256.124 57.696C256.124 55.52 256.636 53.824 257.66 52.608C258.748 51.328 259.996 50.688 261.404 50.688C265.308 50.688 267.26 52.256 267.26 55.392C267.26 56.416 266.908 57.28 266.204 57.984C265.5 58.688 264.604 59.04 263.516 59.04C263.004 59.04 262.46 58.976 261.884 58.848C261.372 58.656 260.956 58.304 260.636 57.792C261.148 60.032 261.98 61.792 263.132 63.072C264.348 64.352 265.884 64.992 267.74 64.992C269.34 64.992 270.524 64.608 271.292 63.84C272.06 63.008 272.444 61.6 272.444 59.616C272.444 57.504 272.252 55.616 271.868 53.952C271.548 52.224 271.036 50.336 270.332 48.288C269.628 46.24 268.764 43.808 267.74 40.992C266.716 38.112 265.564 34.4 264.284 29.856C261.084 36.704 256.86 41.088 251.612 43.008C251.612 43.52 251.612 44.032 251.612 44.544C251.676 44.992 251.708 45.472 251.708 45.984C251.708 49.696 251.388 53.184 250.748 56.448C250.108 59.648 249.02 62.464 247.484 64.896C246.012 67.264 244.092 69.152 241.724 70.56C239.356 71.904 236.444 72.576 232.988 72.576C230.62 72.576 228.348 72.224 226.172 71.52C224.06 70.752 222.172 69.536 220.508 67.872C218.844 66.144 217.5 63.904 216.476 61.152C215.516 58.336 215.036 54.912 215.036 50.88C215.036 48.128 215.324 45.184 215.9 42.048C216.476 38.848 217.532 35.872 219.068 33.12C220.604 30.368 222.684 28.096 225.308 26.304C227.996 24.448 231.42 23.52 235.58 23.52C239.868 23.52 243.292 24.672 245.852 26.976C248.476 29.28 250.236 32.992 251.132 38.112C253.372 37.6 255.388 36.064 257.18 33.504C259.036 30.88 260.796 27.36 262.46 22.944L276.284 21.024ZM235.676 63.552C237.02 63.552 238.172 63.104 239.132 62.208C240.156 61.248 240.988 59.968 241.628 58.368C242.268 56.704 242.716 54.752 242.972 52.512C243.292 50.272 243.452 47.84 243.452 45.216V43.968C240.892 43.392 239.612 41.504 239.612 38.304C239.612 36.256 240.444 34.912 242.108 34.272C241.404 32.224 240.54 30.88 239.516 30.24C238.556 29.6 237.724 29.28 237.02 29.28C235.612 29.28 234.396 29.952 233.372 31.296C232.412 32.576 231.612 34.24 230.972 36.288C230.332 38.272 229.852 40.48 229.532 42.912C229.276 45.344 229.148 47.68 229.148 49.92C229.148 52.8 229.34 55.136 229.724 56.928C230.172 58.72 230.716 60.096 231.356 61.056C231.996 62.016 232.7 62.688 233.468 63.072C234.236 63.392 234.972 63.552 235.676 63.552ZM289.956 11.232C289.956 9.12 290.692 7.328 292.164 5.856C293.636 4.32 295.428 3.55199 297.54 3.55199C299.652 3.55199 301.444 4.32 302.916 5.856C304.452 7.328 305.22 9.12 305.22 11.232C305.22 13.344 304.452 15.136 302.916 16.608C301.444 18.08 299.652 18.816 297.54 18.816C295.428 18.816 293.636 18.08 292.164 16.608C290.692 15.136 289.956 13.344 289.956 11.232ZM304.836 24V56.64C304.836 59.328 305.188 61.12 305.892 62.016C306.66 62.848 307.972 63.264 309.828 63.264C310.66 63.264 311.268 63.2 311.652 63.072C312.1 62.944 312.484 62.816 312.804 62.688C312.868 63.008 312.9 63.328 312.9 63.648C312.9 63.968 312.9 64.288 312.9 64.608C312.9 66.208 312.612 67.52 312.036 68.544C311.524 69.568 310.82 70.4 309.924 71.04C309.092 71.616 308.164 72 307.14 72.192C306.18 72.448 305.252 72.576 304.356 72.576C299.428 72.576 295.972 71.232 293.988 68.544C292.004 65.792 291.012 62.176 291.012 57.696V24H304.836Z" fill="white"/>
<path d="M369.091 12.48C367.043 12.48 364.739 12.288 362.179 11.904C359.619 11.456 356.963 10.944 354.211 10.368V72H340.291V8.44799H339.331C336.451 8.44799 334.051 8.8 332.131 9.504C330.211 10.144 328.675 11.104 327.523 12.384C326.371 13.6 325.571 15.136 325.123 16.992C324.675 18.848 324.451 20.928 324.451 23.232C324.451 25.344 324.579 27.04 324.835 28.32C325.155 29.6 325.507 30.656 325.891 31.488C326.275 32.256 326.659 32.864 327.043 33.312C327.427 33.696 327.747 34.048 328.003 34.368C323.971 34.368 320.803 33.44 318.499 31.584C316.259 29.664 315.139 26.304 315.139 21.504C315.139 18.496 315.651 15.68 316.675 13.056C317.699 10.432 319.331 8.16 321.571 6.23999C323.875 4.32 326.819 2.816 330.403 1.72799C334.051 0.639997 338.499 0.0959988 343.747 0.0959988C346.307 0.0959988 348.611 0.223997 350.659 0.479994C352.771 0.671995 354.723 0.927996 356.515 1.248C358.371 1.504 360.195 1.76 361.987 2.016C363.779 2.208 365.667 2.304 367.651 2.304C370.339 2.304 372.579 2.112 374.371 1.72799C376.227 1.28 377.763 0.799997 378.979 0.287996C379.171 1.568 379.267 2.688 379.267 3.648C379.267 6.528 378.467 8.736 376.867 10.272C375.331 11.744 372.739 12.48 369.091 12.48ZM381.149 24V29.952C382.557 28.288 384.125 26.816 385.853 25.536C387.581 24.192 389.469 23.52 391.517 23.52C392.733 23.52 393.821 23.776 394.781 24.288C395.805 24.8 396.669 25.472 397.373 26.304C398.141 27.136 398.717 28.064 399.101 29.088C399.549 30.048 399.773 31.04 399.773 32.064C399.773 33.472 399.325 34.784 398.429 36C397.597 37.152 396.189 37.728 394.205 37.728C392.733 37.728 391.709 37.408 391.133 36.768C390.557 36.128 390.109 35.456 389.789 34.752C389.469 33.984 389.117 33.28 388.733 32.64C388.413 32 387.805 31.68 386.909 31.68C385.949 31.68 384.989 32.064 384.029 32.832C383.133 33.536 382.173 34.432 381.149 35.52V72H367.325V24H381.149ZM425.306 64.512C427.226 64.512 428.922 64.256 430.394 63.744C431.866 63.232 433.178 62.56 434.33 61.728C435.482 60.832 436.538 59.808 437.498 58.656C438.458 57.44 439.386 56.16 440.282 54.816H443.546C442.65 57.056 441.562 59.232 440.282 61.344C439.066 63.456 437.53 65.344 435.674 67.008C433.882 68.672 431.77 70.016 429.338 71.04C426.906 72.064 424.058 72.576 420.794 72.576C418.042 72.576 415.514 72.16 413.21 71.328C410.906 70.496 408.89 69.216 407.162 67.488C405.498 65.696 404.186 63.424 403.226 60.672C402.33 57.856 401.882 54.496 401.882 50.592C401.882 47.84 402.17 44.896 402.746 41.76C403.386 38.56 404.474 35.616 406.01 32.928C407.546 30.24 409.626 28 412.25 26.208C414.874 24.416 418.202 23.52 422.234 23.52C425.306 23.52 427.674 24 429.338 24.96C431.002 25.92 432.218 27.04 432.986 28.32C433.818 29.6 434.298 30.848 434.426 32.064C434.618 33.28 434.714 34.144 434.714 34.656C434.714 37.536 434.17 40.064 433.082 42.24C432.058 44.416 430.65 46.272 428.858 47.808C427.13 49.28 425.114 50.432 422.81 51.264C420.57 52.032 418.266 52.48 415.898 52.608C415.962 56.896 416.666 59.968 418.01 61.824C419.418 63.616 421.85 64.512 425.306 64.512ZM427.322 34.752C427.322 32.512 426.938 30.944 426.17 30.048C425.402 29.088 424.57 28.608 423.674 28.608C422.586 28.608 421.594 29.152 420.698 30.24C419.802 31.264 419.002 32.672 418.298 34.464C417.658 36.192 417.114 38.24 416.666 40.608C416.282 42.976 416.026 45.44 415.898 48C417.498 47.872 419.002 47.456 420.41 46.752C421.818 45.984 423.034 45.024 424.058 43.872C425.082 42.656 425.882 41.28 426.458 39.744C427.034 38.208 427.322 36.544 427.322 34.752ZM460.902 63.456C462.758 63.456 464.614 62.944 466.47 61.92C468.326 60.896 469.894 59.712 471.174 58.368C471.174 61.12 470.822 63.424 470.118 65.28C469.478 67.072 468.55 68.512 467.334 69.6C466.118 70.688 464.678 71.456 463.014 71.904C461.414 72.352 459.622 72.576 457.638 72.576C454.886 72.576 452.326 72.192 449.958 71.424C447.654 70.592 445.67 69.28 444.006 67.488C442.342 65.696 441.03 63.392 440.07 60.576C439.11 57.76 438.63 54.336 438.63 50.304C438.63 47.616 438.918 44.704 439.494 41.568C440.134 38.432 441.19 35.552 442.662 32.928C444.134 30.24 446.118 28 448.614 26.208C451.174 24.416 454.374 23.52 458.214 23.52C461.414 23.52 463.878 24 465.606 24.96C467.334 25.856 468.614 26.976 469.446 28.32C470.278 29.6 470.758 30.944 470.886 32.352C471.014 33.696 471.078 34.784 471.078 35.616C471.078 37.92 470.598 40.096 469.638 42.144C468.678 44.128 467.366 45.888 465.702 47.424C464.038 48.896 462.086 50.112 459.846 51.072C457.67 51.968 455.302 52.48 452.742 52.608C453.062 56.768 453.99 59.616 455.526 61.152C457.062 62.688 458.854 63.456 460.902 63.456ZM463.59 35.04C463.59 32.608 463.206 30.944 462.438 30.048C461.734 29.088 460.934 28.608 460.038 28.608C458.886 28.608 457.862 29.216 456.966 30.432C456.134 31.648 455.398 33.216 454.758 35.136C454.118 36.992 453.606 39.072 453.222 41.376C452.902 43.68 452.71 45.888 452.646 48C454.246 47.872 455.718 47.456 457.062 46.752C458.406 45.984 459.558 45.024 460.518 43.872C461.478 42.72 462.214 41.376 462.726 39.84C463.302 38.304 463.59 36.704 463.59 35.04Z" fill="black"/>
<path d="M369.091 12.48C367.043 12.48 364.739 12.288 362.179 11.904C359.619 11.456 356.963 10.944 354.211 10.368V72H340.291V8.44799H339.331C336.451 8.44799 334.051 8.8 332.131 9.504C330.211 10.144 328.675 11.104 327.523 12.384C326.371 13.6 325.571 15.136 325.123 16.992C324.675 18.848 324.451 20.928 324.451 23.232C324.451 25.344 324.579 27.04 324.835 28.32C325.155 29.6 325.507 30.656 325.891 31.488C326.275 32.256 326.659 32.864 327.043 33.312C327.427 33.696 327.747 34.048 328.003 34.368C323.971 34.368 320.803 33.44 318.499 31.584C316.259 29.664 315.139 26.304 315.139 21.504C315.139 18.496 315.651 15.68 316.675 13.056C317.699 10.432 319.331 8.16 321.571 6.23999C323.875 4.32 326.819 2.816 330.403 1.72799C334.051 0.639997 338.499 0.0959988 343.747 0.0959988C346.307 0.0959988 348.611 0.223997 350.659 0.479994C352.771 0.671995 354.723 0.927996 356.515 1.248C358.371 1.504 360.195 1.76 361.987 2.016C363.779 2.208 365.667 2.304 367.651 2.304C370.339 2.304 372.579 2.112 374.371 1.72799C376.227 1.28 377.763 0.799997 378.979 0.287996C379.171 1.568 379.267 2.688 379.267 3.648C379.267 6.528 378.467 8.736 376.867 10.272C375.331 11.744 372.739 12.48 369.091 12.48ZM381.149 24V29.952C382.557 28.288 384.125 26.816 385.853 25.536C387.581 24.192 389.469 23.52 391.517 23.52C392.733 23.52 393.821 23.776 394.781 24.288C395.805 24.8 396.669 25.472 397.373 26.304C398.141 27.136 398.717 28.064 399.101 29.088C399.549 30.048 399.773 31.04 399.773 32.064C399.773 33.472 399.325 34.784 398.429 36C397.597 37.152 396.189 37.728 394.205 37.728C392.733 37.728 391.709 37.408 391.133 36.768C390.557 36.128 390.109 35.456 389.789 34.752C389.469 33.984 389.117 33.28 388.733 32.64C388.413 32 387.805 31.68 386.909 31.68C385.949 31.68 384.989 32.064 384.029 32.832C383.133 33.536 382.173 34.432 381.149 35.52V72H367.325V24H381.149ZM425.306 64.512C427.226 64.512 428.922 64.256 430.394 63.744C431.866 63.232 433.178 62.56 434.33 61.728C435.482 60.832 436.538 59.808 437.498 58.656C438.458 57.44 439.386 56.16 440.282 54.816H443.546C442.65 57.056 441.562 59.232 440.282 61.344C439.066 63.456 437.53 65.344 435.674 67.008C433.882 68.672 431.77 70.016 429.338 71.04C426.906 72.064 424.058 72.576 420.794 72.576C418.042 72.576 415.514 72.16 413.21 71.328C410.906 70.496 408.89 69.216 407.162 67.488C405.498 65.696 404.186 63.424 403.226 60.672C402.33 57.856 401.882 54.496 401.882 50.592C401.882 47.84 402.17 44.896 402.746 41.76C403.386 38.56 404.474 35.616 406.01 32.928C407.546 30.24 409.626 28 412.25 26.208C414.874 24.416 418.202 23.52 422.234 23.52C425.306 23.52 427.674 24 429.338 24.96C431.002 25.92 432.218 27.04 432.986 28.32C433.818 29.6 434.298 30.848 434.426 32.064C434.618 33.28 434.714 34.144 434.714 34.656C434.714 37.536 434.17 40.064 433.082 42.24C432.058 44.416 430.65 46.272 428.858 47.808C427.13 49.28 425.114 50.432 422.81 51.264C420.57 52.032 418.266 52.48 415.898 52.608C415.962 56.896 416.666 59.968 418.01 61.824C419.418 63.616 421.85 64.512 425.306 64.512ZM427.322 34.752C427.322 32.512 426.938 30.944 426.17 30.048C425.402 29.088 424.57 28.608 423.674 28.608C422.586 28.608 421.594 29.152 420.698 30.24C419.802 31.264 419.002 32.672 418.298 34.464C417.658 36.192 417.114 38.24 416.666 40.608C416.282 42.976 416.026 45.44 415.898 48C417.498 47.872 419.002 47.456 420.41 46.752C421.818 45.984 423.034 45.024 424.058 43.872C425.082 42.656 425.882 41.28 426.458 39.744C427.034 38.208 427.322 36.544 427.322 34.752ZM460.902 63.456C462.758 63.456 464.614 62.944 466.47 61.92C468.326 60.896 469.894 59.712 471.174 58.368C471.174 61.12 470.822 63.424 470.118 65.28C469.478 67.072 468.55 68.512 467.334 69.6C466.118 70.688 464.678 71.456 463.014 71.904C461.414 72.352 459.622 72.576 457.638 72.576C454.886 72.576 452.326 72.192 449.958 71.424C447.654 70.592 445.67 69.28 444.006 67.488C442.342 65.696 441.03 63.392 440.07 60.576C439.11 57.76 438.63 54.336 438.63 50.304C438.63 47.616 438.918 44.704 439.494 41.568C440.134 38.432 441.19 35.552 442.662 32.928C444.134 30.24 446.118 28 448.614 26.208C451.174 24.416 454.374 23.52 458.214 23.52C461.414 23.52 463.878 24 465.606 24.96C467.334 25.856 468.614 26.976 469.446 28.32C470.278 29.6 470.758 30.944 470.886 32.352C471.014 33.696 471.078 34.784 471.078 35.616C471.078 37.92 470.598 40.096 469.638 42.144C468.678 44.128 467.366 45.888 465.702 47.424C464.038 48.896 462.086 50.112 459.846 51.072C457.67 51.968 455.302 52.48 452.742 52.608C453.062 56.768 453.99 59.616 455.526 61.152C457.062 62.688 458.854 63.456 460.902 63.456ZM463.59 35.04C463.59 32.608 463.206 30.944 462.438 30.048C461.734 29.088 460.934 28.608 460.038 28.608C458.886 28.608 457.862 29.216 456.966 30.432C456.134 31.648 455.398 33.216 454.758 35.136C454.118 36.992 453.606 39.072 453.222 41.376C452.902 43.68 452.71 45.888 452.646 48C454.246 47.872 455.718 47.456 457.062 46.752C458.406 45.984 459.558 45.024 460.518 43.872C461.478 42.72 462.214 41.376 462.726 39.84C463.302 38.304 463.59 36.704 463.59 35.04Z" fill="#56C969"/>
</svg>
